ply
format ascii 1.0
comment VCGLIB generated
element vertex 8
property float x
property float y
property float z
property float nx
property float ny
property float nz
property int flags
element face 12
property list uchar int vertex_indices
property int flags
end_header
0.5 -1 0.5 0.5773503 -0.5773503 0.5773503 0 
-0.5 -1 0.5 -0.5773503 -0.5773503 0.5773503 0 
0.5 -1 -0.5 0.5773503 -0.5773503 -0.5773503 0 
-0.5 -1 -0.5 -0.5773503 -0.5773503 -0.5773503 0 
0.5 0 0.5 0.5773503 0.5773503 0.5773503 0 
-0.5 0 0.5 -0.5773503 0.5773503 0.5773503 0 
0.5 0 -0.5 0.5773503 0.5773503 -0.5773503 0 
-0.5 0 -0.5 -0.5773503 0.5773503 -0.5773503 0 
3 0 1 2 16 
3 1 3 2 16 
3 6 5 4 16 
3 6 7 5 16 
3 1 0 4 16 
3 1 4 5 16 
3 5 3 1 16 
3 5 7 3 16 
3 7 2 3 16 
3 6 2 7 16 
3 0 2 6 16 
3 6 4 0 16 
