ply
format ascii 1.0
comment VCGLIB generated
element vertex 162
property float x
property float y
property float z
property float nx
property float ny
property float nz
property int flags
element face 320
property list uchar int vertex_indices
property int flags
end_header
0.2628656 0.9510565 0.1624599 0.2752163 0.9507909 0.1423119 0 
0.5257311 0.8506508 0 0.5054817 0.8628373 0 0 
0.2628656 0.9510565 -0.1624599 0.2752162 0.9507909 -0.1423119 0 
0 1 0 -2.03279e-09 1 0 0 
0.5 0.809017 0.309017 0.5 0.809017 0.3090169 0 
0.5 0.809017 -0.309017 0.5 0.809017 -0.3090169 0 
0 0.9619383 -0.2732666 -1.070262e-09 0.9582621 -0.2858912 0 
0.2598919 0.8626685 -0.4338886 0.2478402 0.8635955 -0.4390649 0 
0 0.8506508 -0.5257311 0 0.8506508 -0.5257312 0 
0.2598919 0.8626685 0.4338886 0.2478402 0.8635954 0.4390649 0 
0 0.9619383 0.2732666 -1.070262e-09 0.9582621 0.2858912 0 
0 0.8506508 0.5257311 0 0.8506508 0.5257312 0 
0.7020464 0.6937805 -0.160622 0.7104218 0.6869051 -0.1531736 0 
0.7020464 0.6937805 0.160622 0.7104218 0.6869051 0.1531736 0 
0.8506508 0.5257311 0 0.8506507 0.5257312 0 0 
-0.2628656 0.9510565 -0.1624599 -0.2752163 0.9507909 -0.1423119 0 
-0.5257311 0.8506508 0 -0.5054817 0.8628373 0 0 
-0.2628656 0.9510565 0.1624599 -0.2752162 0.9507909 0.1423119 0 
-0.5 0.809017 -0.309017 -0.5 0.809017 -0.3090169 0 
-0.5 0.809017 0.309017 -0.5 0.809017 0.3090169 0 
-0.2598919 0.8626685 0.4338886 -0.2478402 0.8635955 0.4390649 0 
-0.2598919 0.8626685 -0.4338886 -0.2478402 0.8635954 -0.4390649 0 
-0.7020464 0.6937805 0.160622 -0.7104218 0.6869051 0.1531736 0 
-0.7020464 0.6937805 -0.160622 -0.7104218 0.6869051 -0.1531736 0 
-0.8506508 0.5257311 0 -0.8506507 0.5257312 0 0 
0.2628656 -0.9510565 -0.1624599 0.2752163 -0.9507909 -0.1423119 0 
0.5257311 -0.8506508 0 0.5054817 -0.8628373 0 0 
0.2628656 -0.9510565 0.1624599 0.2752162 -0.9507909 0.1423119 0 
0 -1 0 -2.03279e-09 -1 0 0 
0.5 -0.809017 -0.309017 0.5 -0.809017 -0.3090169 0 
0.5 -0.809017 0.309017 0.5 -0.809017 0.3090169 0 
0 -0.9619383 0.2732666 -1.070262e-09 -0.9582621 0.2858912 0 
0.2598919 -0.8626685 0.4338886 0.2478402 -0.8635955 0.4390649 0 
0 -0.8506508 0.5257311 0 -0.8506508 0.5257312 0 
0.2598919 -0.8626685 -0.4338886 0.2478402 -0.8635954 -0.4390649 0 
0 -0.9619383 -0.2732666 -1.070262e-09 -0.9582621 -0.2858912 0 
0 -0.8506508 -0.5257311 0 -0.8506508 -0.5257312 0 
0.7020464 -0.6937805 0.160622 0.7104218 -0.6869051 0.1531736 0 
0.7020464 -0.6937805 -0.160622 0.7104218 -0.6869051 -0.1531736 0 
0.8506508 -0.5257311 0 0.8506507 -0.5257312 0 0 
-0.2628656 -0.9510565 0.1624599 -0.2752163 -0.9507909 0.1423119 0 
-0.5257311 -0.8506508 0 -0.5054817 -0.8628373 0 0 
-0.2628656 -0.9510565 -0.1624599 -0.2752162 -0.9507909 -0.1423119 0 
-0.5 -0.809017 0.309017 -0.5 -0.809017 0.3090169 0 
-0.5 -0.809017 -0.309017 -0.5 -0.809017 -0.3090169 0 
-0.2598919 -0.8626685 -0.4338886 -0.2478402 -0.8635955 -0.4390649 0 
-0.2598919 -0.8626685 0.4338886 -0.2478402 -0.8635954 0.4390649 0 
-0.7020464 -0.6937805 -0.160622 -0.7104218 -0.6869051 -0.1531736 0 
-0.7020464 -0.6937805 0.160622 -0.7104218 -0.6869051 0.1531736 0 
-0.8506508 -0.5257311 0 -0.8506507 -0.5257312 0 0 
0.9510565 -0.1624599 -0.2628656 0.9507909 -0.1423119 -0.2752163 0 
0.8506508 0 -0.5257311 0.8628373 0 -0.5054817 0 
0.9510565 0.1624599 -0.2628656 0.9507909 0.1423119 -0.2752162 0 
1 0 0 1 0 2.03279e-09 0 
0.809017 -0.309017 -0.5 0.809017 -0.3090169 -0.5000001 0 
0.809017 0.309017 -0.5 0.809017 0.309017 -0.5000001 0 
0.9619383 0.2732666 0 0.9582621 0.2858912 1.070262e-09 0 
0.8626685 0.4338886 -0.2598919 0.8635955 0.4390649 -0.2478402 0 
0.8626685 -0.4338886 -0.2598919 0.8635954 -0.4390649 -0.2478402 0 
0.9619383 -0.2732666 0 0.9582621 -0.2858912 1.070262e-09 0 
0.6937805 0.160622 -0.7020464 0.6869051 0.1531736 -0.7104218 0 
0.6937805 -0.160622 -0.7020464 0.6869051 -0.1531736 -0.7104218 0 
0.5257311 0 -0.8506508 0.5257312 0 -0.8506507 0 
0.9510565 0.1624599 0.2628656 0.9507909 0.1423119 0.2752163 0 
0.8506508 0 0.5257311 0.8628373 0 0.5054817 0 
0.9510565 -0.1624599 0.2628656 0.9507909 -0.1423119 0.2752162 0 
0.809017 0.309017 0.5 0.809017 0.3090169 0.5000001 0 
0.809017 -0.309017 0.5 0.809017 -0.309017 0.5000001 0 
0.8626685 -0.4338886 0.2598919 0.8635955 -0.4390649 0.2478402 0 
0.8626685 0.4338886 0.2598919 0.8635954 0.4390649 0.2478402 0 
0.6937805 -0.160622 0.7020464 0.6869051 -0.1531736 0.7104218 0 
0.6937805 0.160622 0.7020464 0.6869051 0.1531736 0.7104218 0 
0.5257311 0 0.8506508 0.5257312 0 0.8506507 0 
-0.9510565 -0.1624599 0.2628656 -0.9507909 -0.1423119 0.2752163 0 
-0.8506508 0 0.5257311 -0.8628373 0 0.5054817 0 
-0.9510565 0.1624599 0.2628656 -0.9507909 0.1423119 0.2752162 0 
-1 0 0 -1 0 -2.03279e-09 0 
-0.809017 -0.309017 0.5 -0.809017 -0.3090169 0.5000001 0 
-0.809017 0.309017 0.5 -0.809017 0.309017 0.5000001 0 
-0.9619383 0.2732666 0 -0.9582621 0.2858912 -1.070262e-09 0 
-0.8626685 0.4338886 0.2598919 -0.8635955 0.4390649 0.2478402 0 
-0.8626685 -0.4338886 0.2598919 -0.8635954 -0.4390649 0.2478402 0 
-0.9619383 -0.2732666 0 -0.9582621 -0.2858912 -1.070262e-09 0 
-0.6937805 0.160622 0.7020464 -0.6869051 0.1531736 0.7104218 0 
-0.6937805 -0.160622 0.7020464 -0.6869051 -0.1531736 0.7104218 0 
-0.5257311 0 0.8506508 -0.5257312 0 0.8506507 0 
-0.9510565 0.1624599 -0.2628656 -0.9507909 0.1423119 -0.2752163 0 
-0.8506508 0 -0.5257311 -0.8628373 0 -0.5054817 0 
-0.9510565 -0.1624599 -0.2628656 -0.9507909 -0.1423119 -0.2752162 0 
-0.809017 0.309017 -0.5 -0.809017 0.3090169 -0.5000001 0 
-0.809017 -0.309017 -0.5 -0.809017 -0.309017 -0.5000001 0 
-0.8626685 -0.4338886 -0.2598919 -0.8635955 -0.4390649 -0.2478402 0 
-0.8626685 0.4338886 -0.2598919 -0.8635954 0.4390649 -0.2478402 0 
-0.6937805 -0.160622 -0.7020464 -0.6869051 -0.1531736 -0.7104218 0 
-0.6937805 0.160622 -0.7020464 -0.6869051 0.1531736 -0.7104218 0 
-0.5257311 0 -0.8506508 -0.5257312 0 -0.8506507 0 
-0.1624599 -0.2628656 0.9510565 -0.1423119 -0.2752163 0.9507909 0 
0 -0.5257311 0.8506508 0 -0.5054817 0.8628373 0 
0.1624599 -0.2628656 0.9510565 0.1423119 -0.2752162 0.9507909 0 
0 0 1 0 2.03279e-09 1 0 
-0.309017 -0.5 0.809017 -0.3090169 -0.5 0.809017 0 
0.309017 -0.5 0.809017 0.3090169 -0.5 0.809017 0 
0.2732666 0 0.9619383 0.2858912 1.070262e-09 0.9582621 0 
0.4338886 -0.2598919 0.8626685 0.4390649 -0.2478402 0.8635955 0 
-0.4338886 -0.2598919 0.8626685 -0.4390649 -0.2478402 0.8635954 0 
-0.2732666 0 0.9619383 -0.2858912 1.070262e-09 0.9582621 0 
0.160622 -0.7020464 0.6937805 0.1531736 -0.7104218 0.6869051 0 
-0.160622 -0.7020464 0.6937805 -0.1531736 -0.7104218 0.6869051 0 
0.1624599 0.2628656 0.9510565 0.1423119 0.2752163 0.9507909 0 
0 0.5257311 0.8506508 0 0.5054817 0.8628373 0 
-0.1624599 0.2628656 0.9510565 -0.1423119 0.2752162 0.9507909 0 
0.309017 0.5 0.809017 0.3090169 0.5 0.809017 0 
-0.309017 0.5 0.809017 -0.3090169 0.5 0.809017 0 
-0.4338886 0.2598919 0.8626685 -0.4390649 0.2478402 0.8635955 0 
0.4338886 0.2598919 0.8626685 0.4390649 0.2478402 0.8635954 0 
-0.160622 0.7020464 0.6937805 -0.1531736 0.7104218 0.6869051 0 
0.160622 0.7020464 0.6937805 0.1531736 0.7104218 0.6869051 0 
-0.1624599 0.2628656 -0.9510565 -0.1423119 0.2752163 -0.9507909 0 
0 0.5257311 -0.8506508 0 0.5054817 -0.8628373 0 
0.1624599 0.2628656 -0.9510565 0.1423119 0.2752162 -0.9507909 0 
0 0 -1 0 -2.03279e-09 -1 0 
-0.309017 0.5 -0.809017 -0.3090169 0.5 -0.809017 0 
0.309017 0.5 -0.809017 0.3090169 0.5 -0.809017 0 
0.2732666 0 -0.9619383 0.2858912 -1.070262e-09 -0.9582621 0 
0.4338886 0.2598919 -0.8626685 0.4390649 0.2478402 -0.8635955 0 
-0.4338886 0.2598919 -0.8626685 -0.4390649 0.2478402 -0.8635954 0 
-0.2732666 0 -0.9619383 -0.2858912 -1.070262e-09 -0.9582621 0 
0.160622 0.7020464 -0.6937805 0.1531736 0.7104218 -0.6869051 0 
-0.160622 0.7020464 -0.6937805 -0.1531736 0.7104218 -0.6869051 0 
0.1624599 -0.2628656 -0.9510565 0.1423119 -0.2752163 -0.9507909 0 
0 -0.5257311 -0.8506508 0 -0.5054817 -0.8628373 0 
-0.1624599 -0.2628656 -0.9510565 -0.1423119 -0.2752162 -0.9507909 0 
0.309017 -0.5 -0.809017 0.3090169 -0.5 -0.809017 0 
-0.309017 -0.5 -0.809017 -0.3090169 -0.5 -0.809017 0 
-0.4338886 -0.2598919 -0.8626685 -0.4390649 -0.2478402 -0.8635955 0 
0.4338886 -0.2598919 -0.8626685 0.4390649 -0.2478402 -0.8635954 0 
-0.160622 -0.7020464 -0.6937805 -0.1531736 -0.7104218 -0.6869051 0 
0.160622 -0.7020464 -0.6937805 0.1531736 -0.7104218 -0.6869051 0 
0.5877853 0.4253254 0.6881909 0.5876212 0.4453092 0.6755747 0 
0.6881909 0.5877853 0.4253254 0.6755747 0.5876212 0.4453092 0 
0.4253254 0.6881909 0.5877853 0.4453092 0.6755747 0.5876212 0 
-0.6881909 0.5877853 0.4253254 -0.6755747 0.5876212 0.4453092 0 
-0.5877853 0.4253254 0.6881909 -0.5876212 0.4453091 0.6755747 0 
-0.4253254 0.6881909 0.5877853 -0.4453091 0.6755747 0.5876212 0 
0.6881909 0.5877853 -0.4253254 0.6755747 0.5876212 -0.4453092 0 
0.5877853 0.4253254 -0.6881909 0.5876212 0.4453091 -0.6755747 0 
0.4253254 0.6881909 -0.5877853 0.4453091 0.6755747 -0.5876212 0 
-0.5877853 0.4253254 -0.6881909 -0.5876212 0.4453092 -0.6755747 0 
-0.6881909 0.5877853 -0.4253254 -0.6755747 0.5876212 -0.4453092 0 
-0.4253254 0.6881909 -0.5877853 -0.4453092 0.6755747 -0.5876212 0 
0.6881909 -0.5877853 0.4253254 0.6755747 -0.5876212 0.4453092 0 
0.5877853 -0.4253254 0.6881909 0.5876212 -0.4453091 0.6755747 0 
0.4253254 -0.6881909 0.5877853 0.4453091 -0.6755747 0.5876212 0 
-0.5877853 -0.4253254 0.6881909 -0.5876212 -0.4453092 0.6755747 0 
-0.6881909 -0.5877853 0.4253254 -0.6755747 -0.5876212 0.4453092 0 
-0.4253254 -0.6881909 0.5877853 -0.4453092 -0.6755747 0.5876212 0 
0.5877853 -0.4253254 -0.6881909 0.5876212 -0.4453092 -0.6755747 0 
0.6881909 -0.5877853 -0.4253254 0.6755747 -0.5876212 -0.4453092 0 
0.4253254 -0.6881909 -0.5877853 0.4453092 -0.6755747 -0.5876212 0 
-0.6881909 -0.5877853 -0.4253254 -0.6755747 -0.5876212 -0.4453092 0 
-0.5877853 -0.4253254 -0.6881909 -0.5876212 -0.4453091 -0.6755747 0 
-0.4253254 -0.6881909 -0.5877853 -0.4453091 -0.6755747 -0.5876212 0 
3 0 1 2 0 
3 3 0 2 0 
3 4 1 0 0 
3 5 2 1 0 
3 6 2 7 0 
3 8 6 7 0 
3 3 2 6 0 
3 5 7 2 0 
3 9 0 10 0 
3 11 9 10 0 
3 4 0 9 0 
3 3 10 0 0 
3 12 1 13 0 
3 14 12 13 0 
3 5 1 12 0 
3 4 13 1 0 
3 15 16 17 0 
3 3 15 17 0 
3 18 16 15 0 
3 19 17 16 0 
3 10 17 20 0 
3 11 10 20 0 
3 3 17 10 0 
3 19 20 17 0 
3 21 15 6 0 
3 8 21 6 0 
3 18 15 21 0 
3 3 6 15 0 
3 22 16 23 0 
3 24 22 23 0 
3 19 16 22 0 
3 18 23 16 0 
3 25 26 27 0 
3 28 25 27 0 
3 29 26 25 0 
3 30 27 26 0 
3 31 27 32 0 
3 33 31 32 0 
3 28 27 31 0 
3 30 32 27 0 
3 34 25 35 0 
3 36 34 35 0 
3 29 25 34 0 
3 28 35 25 0 
3 37 26 38 0 
3 39 37 38 0 
3 30 26 37 0 
3 29 38 26 0 
3 40 41 42 0 
3 28 40 42 0 
3 43 41 40 0 
3 44 42 41 0 
3 35 42 45 0 
3 36 35 45 0 
3 28 42 35 0 
3 44 45 42 0 
3 46 40 31 0 
3 33 46 31 0 
3 43 40 46 0 
3 28 31 40 0 
3 47 41 48 0 
3 49 47 48 0 
3 44 41 47 0 
3 43 48 41 0 
3 50 51 52 0 
3 53 50 52 0 
3 54 51 50 0 
3 55 52 51 0 
3 56 52 57 0 
3 14 56 57 0 
3 53 52 56 0 
3 55 57 52 0 
3 58 50 59 0 
3 39 58 59 0 
3 54 50 58 0 
3 53 59 50 0 
3 60 51 61 0 
3 62 60 61 0 
3 55 51 60 0 
3 54 61 51 0 
3 63 64 65 0 
3 53 63 65 0 
3 66 64 63 0 
3 67 65 64 0 
3 59 65 68 0 
3 39 59 68 0 
3 53 65 59 0 
3 67 68 65 0 
3 69 63 56 0 
3 14 69 56 0 
3 66 63 69 0 
3 53 56 63 0 
3 70 64 71 0 
3 72 70 71 0 
3 67 64 70 0 
3 66 71 64 0 
3 73 74 75 0 
3 76 73 75 0 
3 77 74 73 0 
3 78 75 74 0 
3 79 75 80 0 
3 24 79 80 0 
3 76 75 79 0 
3 78 80 75 0 
3 81 73 82 0 
3 49 81 82 0 
3 77 73 81 0 
3 76 82 73 0 
3 83 74 84 0 
3 85 83 84 0 
3 78 74 83 0 
3 77 84 74 0 
3 86 87 88 0 
3 76 86 88 0 
3 89 87 86 0 
3 90 88 87 0 
3 82 88 91 0 
3 49 82 91 0 
3 76 88 82 0 
3 90 91 88 0 
3 92 86 79 0 
3 24 92 79 0 
3 89 86 92 0 
3 76 79 86 0 
3 93 87 94 0 
3 95 93 94 0 
3 90 87 93 0 
3 89 94 87 0 
3 96 97 98 0 
3 99 96 98 0 
3 100 97 96 0 
3 101 98 97 0 
3 102 98 103 0 
3 72 102 103 0 
3 99 98 102 0 
3 101 103 98 0 
3 104 96 105 0 
3 85 104 105 0 
3 100 96 104 0 
3 99 105 96 0 
3 106 97 107 0 
3 33 106 107 0 
3 101 97 106 0 
3 100 107 97 0 
3 108 109 110 0 
3 99 108 110 0 
3 111 109 108 0 
3 112 110 109 0 
3 105 110 113 0 
3 85 105 113 0 
3 99 110 105 0 
3 112 113 110 0 
3 114 108 102 0 
3 72 114 102 0 
3 111 108 114 0 
3 99 102 108 0 
3 115 109 116 0 
3 11 115 116 0 
3 112 109 115 0 
3 111 116 109 0 
3 117 118 119 0 
3 120 117 119 0 
3 121 118 117 0 
3 122 119 118 0 
3 123 119 124 0 
3 62 123 124 0 
3 120 119 123 0 
3 122 124 119 0 
3 125 117 126 0 
3 95 125 126 0 
3 121 117 125 0 
3 120 126 117 0 
3 127 118 128 0 
3 8 127 128 0 
3 122 118 127 0 
3 121 128 118 0 
3 129 130 131 0 
3 120 129 131 0 
3 132 130 129 0 
3 133 131 130 0 
3 126 131 134 0 
3 95 126 134 0 
3 120 131 126 0 
3 133 134 131 0 
3 135 129 123 0 
3 62 135 123 0 
3 132 129 135 0 
3 120 123 129 0 
3 136 130 137 0 
3 36 136 137 0 
3 133 130 136 0 
3 132 137 130 0 
3 138 139 140 0 
3 111 138 140 0 
3 66 139 138 0 
3 4 140 139 0 
3 116 140 9 0 
3 11 116 9 0 
3 111 140 116 0 
3 4 9 140 0 
3 71 138 114 0 
3 72 71 114 0 
3 66 138 71 0 
3 111 114 138 0 
3 13 139 69 0 
3 14 13 69 0 
3 4 139 13 0 
3 66 69 139 0 
3 141 142 143 0 
3 19 141 143 0 
3 78 142 141 0 
3 112 143 142 0 
3 20 143 115 0 
3 11 20 115 0 
3 19 143 20 0 
3 112 115 143 0 
3 80 141 22 0 
3 24 80 22 0 
3 78 141 80 0 
3 19 22 141 0 
3 113 142 83 0 
3 85 113 83 0 
3 112 142 113 0 
3 78 83 142 0 
3 144 145 146 0 
3 5 144 146 0 
3 55 145 144 0 
3 122 146 145 0 
3 7 146 127 0 
3 8 7 127 0 
3 5 146 7 0 
3 122 127 146 0 
3 57 144 12 0 
3 14 57 12 0 
3 55 144 57 0 
3 5 12 144 0 
3 124 145 60 0 
3 62 124 60 0 
3 122 145 124 0 
3 55 60 145 0 
3 147 148 149 0 
3 121 147 149 0 
3 89 148 147 0 
3 18 149 148 0 
3 128 149 21 0 
3 8 128 21 0 
3 121 149 128 0 
3 18 21 149 0 
3 94 147 125 0 
3 95 94 125 0 
3 89 147 94 0 
3 121 125 147 0 
3 23 148 92 0 
3 24 23 92 0 
3 18 148 23 0 
3 89 92 148 0 
3 150 151 152 0 
3 30 150 152 0 
3 67 151 150 0 
3 101 152 151 0 
3 32 152 106 0 
3 33 32 106 0 
3 30 152 32 0 
3 101 106 152 0 
3 68 150 37 0 
3 39 68 37 0 
3 67 150 68 0 
3 30 37 150 0 
3 103 151 70 0 
3 72 103 70 0 
3 101 151 103 0 
3 67 70 151 0 
3 153 154 155 0 
3 100 153 155 0 
3 77 154 153 0 
3 43 155 154 0 
3 107 155 46 0 
3 33 107 46 0 
3 100 155 107 0 
3 43 46 155 0 
3 84 153 104 0 
3 85 84 104 0 
3 77 153 84 0 
3 100 104 153 0 
3 48 154 81 0 
3 49 48 81 0 
3 43 154 48 0 
3 77 81 154 0 
3 156 157 158 0 
3 132 156 158 0 
3 54 157 156 0 
3 29 158 157 0 
3 137 158 34 0 
3 36 137 34 0 
3 132 158 137 0 
3 29 34 158 0 
3 61 156 135 0 
3 62 61 135 0 
3 54 156 61 0 
3 132 135 156 0 
3 38 157 58 0 
3 39 38 58 0 
3 29 157 38 0 
3 54 58 157 0 
3 159 160 161 0 
3 44 159 161 0 
3 90 160 159 0 
3 133 161 160 0 
3 45 161 136 0 
3 36 45 136 0 
3 44 161 45 0 
3 133 136 161 0 
3 91 159 47 0 
3 49 91 47 0 
3 90 159 91 0 
3 44 47 159 0 
3 134 160 93 0 
3 95 134 93 0 
3 133 160 134 0 
3 90 93 160 0 
